<svg xmlns="http://www.w3.org/2000/svg" xmlns:xlink="http://www.w3.org/1999/xlink" xmlns:s="https://github.com/nturley/netlistsvg" width="826" height="985.5">
  <style>svg {
    stroke:#000;
    fill:none;
  }
  text {
    fill:#000;
    stroke:none;
    font-size:10px;
    font-weight: bold;
    font-family: "Courier New", monospace;
  }
  line {
      stroke-linecap: round;
  }
  .nodelabel {
    text-anchor: middle;
  }
  .inputPortLabel {
    text-anchor: end;
  }
  .splitjoinBody {
    fill:#000;
  }</style>
  <g s:type="and" transform="translate(302.3333333333333,753.5)" s:width="30" s:height="25" id="cell_\101">
    <s:alias val="$and"/>
    <s:alias val="$logic_and"/>
    <s:alias val="$_AND_"/>
    <path d="M0,0 L0,25 L15,25 A15 12.5 0 0 0 15,0 Z" class="cell_\101"/>
    <g s:x="0" s:y="5" s:pid="A"/>
    <g s:x="0" s:y="20" s:pid="B"/>
    <g s:x="30" s:y="12.5" s:pid="Y"/>
  </g>
  <g s:type="and" transform="translate(380.6666666666667,881)" s:width="30" s:height="25" id="cell_\103">
    <s:alias val="$and"/>
    <s:alias val="$logic_and"/>
    <s:alias val="$_AND_"/>
    <path d="M0,0 L0,25 L15,25 A15 12.5 0 0 0 15,0 Z" class="cell_\103"/>
    <g s:x="0" s:y="5" s:pid="A"/>
    <g s:x="0" s:y="20" s:pid="B"/>
    <g s:x="30" s:y="12.5" s:pid="Y"/>
  </g>
  <g s:type="not" transform="translate(381,658.5)" s:width="30" s:height="20" id="cell_\105">
    <s:alias val="$_NOT_"/>
    <s:alias val="$not"/>
    <s:alias val="$logic_not"/>
    <path d="M0,0 L0,20 L20,10 Z" class="cell_\105"/>
    <circle cx="24" cy="10" r="3" class="cell_\105"/>
    <g s:x="-1" s:y="10" s:pid="A"/>
    <g s:x="27" s:y="10" s:pid="Y"/>
  </g>
  <g s:type="and" transform="translate(451,888.5)" s:width="30" s:height="25" id="cell_\106">
    <s:alias val="$and"/>
    <s:alias val="$logic_and"/>
    <s:alias val="$_AND_"/>
    <path d="M0,0 L0,25 L15,25 A15 12.5 0 0 0 15,0 Z" class="cell_\106"/>
    <g s:x="0" s:y="5" s:pid="A"/>
    <g s:x="0" s:y="20" s:pid="B"/>
    <g s:x="30" s:y="12.5" s:pid="Y"/>
  </g>
  <g s:type="reduce_xor" transform="translate(561,881)" s:width="33" s:height="25" id="cell_\107">
    <s:alias val="$xor"/>
    <s:alias val="$reduce_xor"/>
    <s:alias val="$_XOR_"/>
    <path d="M3,0 A30 25 0 0 1 3,25 A30 25 0 0 0 33,12.5 A30 25 0 0 0 3,0" class="cell_\107"/>
    <path d="M0,0 A30 25 0 0 1 0,25" class="cell_\107"/>
    <g s:x="2" s:y="5" s:pid="A"/>
    <g s:x="2" s:y="20" s:pid="B"/>
    <g s:x="33" s:y="12.5" s:pid="Y"/>
  </g>
  <g s:type="and" transform="translate(451,47)" s:width="30" s:height="25" id="cell_\11">
    <s:alias val="$and"/>
    <s:alias val="$logic_and"/>
    <s:alias val="$_AND_"/>
    <path d="M0,0 L0,25 L15,25 A15 12.5 0 0 0 15,0 Z" class="cell_\11"/>
    <g s:x="0" s:y="5" s:pid="A"/>
    <g s:x="0" s:y="20" s:pid="B"/>
    <g s:x="30" s:y="12.5" s:pid="Y"/>
  </g>
  <g s:type="and" transform="translate(451,948.5)" s:width="30" s:height="25" id="cell_\115">
    <s:alias val="$and"/>
    <s:alias val="$logic_and"/>
    <s:alias val="$_AND_"/>
    <path d="M0,0 L0,25 L15,25 A15 12.5 0 0 0 15,0 Z" class="cell_\115"/>
    <g s:x="0" s:y="5" s:pid="A"/>
    <g s:x="0" s:y="20" s:pid="B"/>
    <g s:x="30" s:y="12.5" s:pid="Y"/>
  </g>
  <g s:type="reduce_xor" transform="translate(561,941)" s:width="33" s:height="25" id="cell_\116">
    <s:alias val="$xor"/>
    <s:alias val="$reduce_xor"/>
    <s:alias val="$_XOR_"/>
    <path d="M3,0 A30 25 0 0 1 3,25 A30 25 0 0 0 33,12.5 A30 25 0 0 0 3,0" class="cell_\116"/>
    <path d="M0,0 A30 25 0 0 1 0,25" class="cell_\116"/>
    <g s:x="2" s:y="5" s:pid="A"/>
    <g s:x="2" s:y="20" s:pid="B"/>
    <g s:x="33" s:y="12.5" s:pid="Y"/>
  </g>
  <g s:type="reduce_xor" transform="translate(561,39.5)" s:width="33" s:height="25" id="cell_\12">
    <s:alias val="$xor"/>
    <s:alias val="$reduce_xor"/>
    <s:alias val="$_XOR_"/>
    <path d="M3,0 A30 25 0 0 1 3,25 A30 25 0 0 0 33,12.5 A30 25 0 0 0 3,0" class="cell_\12"/>
    <path d="M0,0 A30 25 0 0 1 0,25" class="cell_\12"/>
    <g s:x="2" s:y="5" s:pid="A"/>
    <g s:x="2" s:y="20" s:pid="B"/>
    <g s:x="33" s:y="12.5" s:pid="Y"/>
  </g>
  <g s:type="not" transform="translate(233,12)" s:width="30" s:height="20" id="cell_\15">
    <s:alias val="$_NOT_"/>
    <s:alias val="$not"/>
    <s:alias val="$logic_not"/>
    <path d="M0,0 L0,20 L20,10 Z" class="cell_\15"/>
    <circle cx="24" cy="10" r="3" class="cell_\15"/>
    <g s:x="-1" s:y="10" s:pid="A"/>
    <g s:x="27" s:y="10" s:pid="Y"/>
  </g>
  <g s:type="and" transform="translate(302.3333333333333,84.5)" s:width="30" s:height="25" id="cell_\17">
    <s:alias val="$and"/>
    <s:alias val="$logic_and"/>
    <s:alias val="$_AND_"/>
    <path d="M0,0 L0,25 L15,25 A15 12.5 0 0 0 15,0 Z" class="cell_\17"/>
    <g s:x="0" s:y="5" s:pid="A"/>
    <g s:x="0" s:y="20" s:pid="B"/>
    <g s:x="30" s:y="12.5" s:pid="Y"/>
  </g>
  <g s:type="not" transform="translate(304,258)" s:width="30" s:height="20" id="cell_\19">
    <s:alias val="$_NOT_"/>
    <s:alias val="$not"/>
    <s:alias val="$logic_not"/>
    <path d="M0,0 L0,20 L20,10 Z" class="cell_\19"/>
    <circle cx="24" cy="10" r="3" class="cell_\19"/>
    <g s:x="-1" s:y="10" s:pid="A"/>
    <g s:x="27" s:y="10" s:pid="Y"/>
  </g>
  <g s:type="and" transform="translate(380.6666666666667,92)" s:width="30" s:height="25" id="cell_\20">
    <s:alias val="$and"/>
    <s:alias val="$logic_and"/>
    <s:alias val="$_AND_"/>
    <path d="M0,0 L0,25 L15,25 A15 12.5 0 0 0 15,0 Z" class="cell_\20"/>
    <g s:x="0" s:y="5" s:pid="A"/>
    <g s:x="0" s:y="20" s:pid="B"/>
    <g s:x="30" s:y="12.5" s:pid="Y"/>
  </g>
  <g s:type="and" transform="translate(451,107)" s:width="30" s:height="25" id="cell_\22">
    <s:alias val="$and"/>
    <s:alias val="$logic_and"/>
    <s:alias val="$_AND_"/>
    <path d="M0,0 L0,25 L15,25 A15 12.5 0 0 0 15,0 Z" class="cell_\22"/>
    <g s:x="0" s:y="5" s:pid="A"/>
    <g s:x="0" s:y="20" s:pid="B"/>
    <g s:x="30" s:y="12.5" s:pid="Y"/>
  </g>
  <g s:type="reduce_xor" transform="translate(561,99.5)" s:width="33" s:height="25" id="cell_\23">
    <s:alias val="$xor"/>
    <s:alias val="$reduce_xor"/>
    <s:alias val="$_XOR_"/>
    <path d="M3,0 A30 25 0 0 1 3,25 A30 25 0 0 0 33,12.5 A30 25 0 0 0 3,0" class="cell_\23"/>
    <path d="M0,0 A30 25 0 0 1 0,25" class="cell_\23"/>
    <g s:x="2" s:y="5" s:pid="A"/>
    <g s:x="2" s:y="20" s:pid="B"/>
    <g s:x="33" s:y="12.5" s:pid="Y"/>
  </g>
  <g s:type="and" transform="translate(380.6666666666667,159.5)" s:width="30" s:height="25" id="cell_\30">
    <s:alias val="$and"/>
    <s:alias val="$logic_and"/>
    <s:alias val="$_AND_"/>
    <path d="M0,0 L0,25 L15,25 A15 12.5 0 0 0 15,0 Z" class="cell_\30"/>
    <g s:x="0" s:y="5" s:pid="A"/>
    <g s:x="0" s:y="20" s:pid="B"/>
    <g s:x="30" s:y="12.5" s:pid="Y"/>
  </g>
  <g s:type="and" transform="translate(451,167)" s:width="30" s:height="25" id="cell_\33">
    <s:alias val="$and"/>
    <s:alias val="$logic_and"/>
    <s:alias val="$_AND_"/>
    <path d="M0,0 L0,25 L15,25 A15 12.5 0 0 0 15,0 Z" class="cell_\33"/>
    <g s:x="0" s:y="5" s:pid="A"/>
    <g s:x="0" s:y="20" s:pid="B"/>
    <g s:x="30" s:y="12.5" s:pid="Y"/>
  </g>
  <g s:type="reduce_xor" transform="translate(561,159.5)" s:width="33" s:height="25" id="cell_\34">
    <s:alias val="$xor"/>
    <s:alias val="$reduce_xor"/>
    <s:alias val="$_XOR_"/>
    <path d="M3,0 A30 25 0 0 1 3,25 A30 25 0 0 0 33,12.5 A30 25 0 0 0 3,0" class="cell_\34"/>
    <path d="M0,0 A30 25 0 0 1 0,25" class="cell_\34"/>
    <g s:x="2" s:y="5" s:pid="A"/>
    <g s:x="2" s:y="20" s:pid="B"/>
    <g s:x="33" s:y="12.5" s:pid="Y"/>
  </g>
  <g s:type="and" transform="translate(451,227)" s:width="30" s:height="25" id="cell_\43">
    <s:alias val="$and"/>
    <s:alias val="$logic_and"/>
    <s:alias val="$_AND_"/>
    <path d="M0,0 L0,25 L15,25 A15 12.5 0 0 0 15,0 Z" class="cell_\43"/>
    <g s:x="0" s:y="5" s:pid="A"/>
    <g s:x="0" s:y="20" s:pid="B"/>
    <g s:x="30" s:y="12.5" s:pid="Y"/>
  </g>
  <g s:type="reduce_xor" transform="translate(561,219.5)" s:width="33" s:height="25" id="cell_\44">
    <s:alias val="$xor"/>
    <s:alias val="$reduce_xor"/>
    <s:alias val="$_XOR_"/>
    <path d="M3,0 A30 25 0 0 1 3,25 A30 25 0 0 0 33,12.5 A30 25 0 0 0 3,0" class="cell_\44"/>
    <path d="M0,0 A30 25 0 0 1 0,25" class="cell_\44"/>
    <g s:x="2" s:y="5" s:pid="A"/>
    <g s:x="2" s:y="20" s:pid="B"/>
    <g s:x="33" s:y="12.5" s:pid="Y"/>
  </g>
  <g s:type="not" transform="translate(233,149.5)" s:width="30" s:height="20" id="cell_\48">
    <s:alias val="$_NOT_"/>
    <s:alias val="$not"/>
    <s:alias val="$logic_not"/>
    <path d="M0,0 L0,20 L20,10 Z" class="cell_\48"/>
    <circle cx="24" cy="10" r="3" class="cell_\48"/>
    <g s:x="-1" s:y="10" s:pid="A"/>
    <g s:x="27" s:y="10" s:pid="Y"/>
  </g>
  <g s:type="and" transform="translate(302.3333333333333,313)" s:width="30" s:height="25" id="cell_\49">
    <s:alias val="$and"/>
    <s:alias val="$logic_and"/>
    <s:alias val="$_AND_"/>
    <path d="M0,0 L0,25 L15,25 A15 12.5 0 0 0 15,0 Z" class="cell_\49"/>
    <g s:x="0" s:y="5" s:pid="A"/>
    <g s:x="0" s:y="20" s:pid="B"/>
    <g s:x="30" s:y="12.5" s:pid="Y"/>
  </g>
  <g s:type="and" transform="translate(380.6666666666667,320.5)" s:width="30" s:height="25" id="cell_\52">
    <s:alias val="$and"/>
    <s:alias val="$logic_and"/>
    <s:alias val="$_AND_"/>
    <path d="M0,0 L0,25 L15,25 A15 12.5 0 0 0 15,0 Z" class="cell_\52"/>
    <g s:x="0" s:y="5" s:pid="A"/>
    <g s:x="0" s:y="20" s:pid="B"/>
    <g s:x="30" s:y="12.5" s:pid="Y"/>
  </g>
  <g s:type="and" transform="translate(451,335.5)" s:width="30" s:height="25" id="cell_\54">
    <s:alias val="$and"/>
    <s:alias val="$logic_and"/>
    <s:alias val="$_AND_"/>
    <path d="M0,0 L0,25 L15,25 A15 12.5 0 0 0 15,0 Z" class="cell_\54"/>
    <g s:x="0" s:y="5" s:pid="A"/>
    <g s:x="0" s:y="20" s:pid="B"/>
    <g s:x="30" s:y="12.5" s:pid="Y"/>
  </g>
  <g s:type="reduce_xor" transform="translate(561,534)" s:width="33" s:height="25" id="cell_\55">
    <s:alias val="$xor"/>
    <s:alias val="$reduce_xor"/>
    <s:alias val="$_XOR_"/>
    <path d="M3,0 A30 25 0 0 1 3,25 A30 25 0 0 0 33,12.5 A30 25 0 0 0 3,0" class="cell_\55"/>
    <path d="M0,0 A30 25 0 0 1 0,25" class="cell_\55"/>
    <g s:x="2" s:y="5" s:pid="A"/>
    <g s:x="2" s:y="20" s:pid="B"/>
    <g s:x="33" s:y="12.5" s:pid="Y"/>
  </g>
  <g s:type="and" transform="translate(380.6666666666667,598.5)" s:width="30" s:height="25" id="cell_\62">
    <s:alias val="$and"/>
    <s:alias val="$logic_and"/>
    <s:alias val="$_AND_"/>
    <path d="M0,0 L0,25 L15,25 A15 12.5 0 0 0 15,0 Z" class="cell_\62"/>
    <g s:x="0" s:y="5" s:pid="A"/>
    <g s:x="0" s:y="20" s:pid="B"/>
    <g s:x="30" s:y="12.5" s:pid="Y"/>
  </g>
  <g s:type="and" transform="translate(451,648.5)" s:width="30" s:height="25" id="cell_\65">
    <s:alias val="$and"/>
    <s:alias val="$logic_and"/>
    <s:alias val="$_AND_"/>
    <path d="M0,0 L0,25 L15,25 A15 12.5 0 0 0 15,0 Z" class="cell_\65"/>
    <g s:x="0" s:y="5" s:pid="A"/>
    <g s:x="0" s:y="20" s:pid="B"/>
    <g s:x="30" s:y="12.5" s:pid="Y"/>
  </g>
  <g s:type="reduce_xor" transform="translate(561,641)" s:width="33" s:height="25" id="cell_\66">
    <s:alias val="$xor"/>
    <s:alias val="$reduce_xor"/>
    <s:alias val="$_XOR_"/>
    <path d="M3,0 A30 25 0 0 1 3,25 A30 25 0 0 0 33,12.5 A30 25 0 0 0 3,0" class="cell_\66"/>
    <path d="M0,0 A30 25 0 0 1 0,25" class="cell_\66"/>
    <g s:x="2" s:y="5" s:pid="A"/>
    <g s:x="2" s:y="20" s:pid="B"/>
    <g s:x="33" s:y="12.5" s:pid="Y"/>
  </g>
  <g s:type="and" transform="translate(302.3333333333333,17)" s:width="30" s:height="25" id="cell_\7">
    <s:alias val="$and"/>
    <s:alias val="$logic_and"/>
    <s:alias val="$_AND_"/>
    <path d="M0,0 L0,25 L15,25 A15 12.5 0 0 0 15,0 Z" class="cell_\7"/>
    <g s:x="0" s:y="5" s:pid="A"/>
    <g s:x="0" s:y="20" s:pid="B"/>
    <g s:x="30" s:y="12.5" s:pid="Y"/>
  </g>
  <g s:type="and" transform="translate(451,708.5)" s:width="30" s:height="25" id="cell_\75">
    <s:alias val="$and"/>
    <s:alias val="$logic_and"/>
    <s:alias val="$_AND_"/>
    <path d="M0,0 L0,25 L15,25 A15 12.5 0 0 0 15,0 Z" class="cell_\75"/>
    <g s:x="0" s:y="5" s:pid="A"/>
    <g s:x="0" s:y="20" s:pid="B"/>
    <g s:x="30" s:y="12.5" s:pid="Y"/>
  </g>
  <g s:type="reduce_xor" transform="translate(561,701)" s:width="33" s:height="25" id="cell_\76">
    <s:alias val="$xor"/>
    <s:alias val="$reduce_xor"/>
    <s:alias val="$_XOR_"/>
    <path d="M3,0 A30 25 0 0 1 3,25 A30 25 0 0 0 33,12.5 A30 25 0 0 0 3,0" class="cell_\76"/>
    <path d="M0,0 A30 25 0 0 1 0,25" class="cell_\76"/>
    <g s:x="2" s:y="5" s:pid="A"/>
    <g s:x="2" s:y="20" s:pid="B"/>
    <g s:x="33" s:y="12.5" s:pid="Y"/>
  </g>
  <g s:type="and" transform="translate(380.6666666666667,761)" s:width="30" s:height="25" id="cell_\83">
    <s:alias val="$and"/>
    <s:alias val="$logic_and"/>
    <s:alias val="$_AND_"/>
    <path d="M0,0 L0,25 L15,25 A15 12.5 0 0 0 15,0 Z" class="cell_\83"/>
    <g s:x="0" s:y="5" s:pid="A"/>
    <g s:x="0" s:y="20" s:pid="B"/>
    <g s:x="30" s:y="12.5" s:pid="Y"/>
  </g>
  <g s:type="and" transform="translate(451,768.5)" s:width="30" s:height="25" id="cell_\86">
    <s:alias val="$and"/>
    <s:alias val="$logic_and"/>
    <s:alias val="$_AND_"/>
    <path d="M0,0 L0,25 L15,25 A15 12.5 0 0 0 15,0 Z" class="cell_\86"/>
    <g s:x="0" s:y="5" s:pid="A"/>
    <g s:x="0" s:y="20" s:pid="B"/>
    <g s:x="30" s:y="12.5" s:pid="Y"/>
  </g>
  <g s:type="reduce_xor" transform="translate(561,761)" s:width="33" s:height="25" id="cell_\87">
    <s:alias val="$xor"/>
    <s:alias val="$reduce_xor"/>
    <s:alias val="$_XOR_"/>
    <path d="M3,0 A30 25 0 0 1 3,25 A30 25 0 0 0 33,12.5 A30 25 0 0 0 3,0" class="cell_\87"/>
    <path d="M0,0 A30 25 0 0 1 0,25" class="cell_\87"/>
    <g s:x="2" s:y="5" s:pid="A"/>
    <g s:x="2" s:y="20" s:pid="B"/>
    <g s:x="33" s:y="12.5" s:pid="Y"/>
  </g>
  <g s:type="and" transform="translate(380.6666666666667,32)" s:width="30" s:height="25" id="cell_\9">
    <s:alias val="$and"/>
    <s:alias val="$logic_and"/>
    <s:alias val="$_AND_"/>
    <path d="M0,0 L0,25 L15,25 A15 12.5 0 0 0 15,0 Z" class="cell_\9"/>
    <g s:x="0" s:y="5" s:pid="A"/>
    <g s:x="0" s:y="20" s:pid="B"/>
    <g s:x="30" s:y="12.5" s:pid="Y"/>
  </g>
  <g s:type="and" transform="translate(451,828.5)" s:width="30" s:height="25" id="cell_\96">
    <s:alias val="$and"/>
    <s:alias val="$logic_and"/>
    <s:alias val="$_AND_"/>
    <path d="M0,0 L0,25 L15,25 A15 12.5 0 0 0 15,0 Z" class="cell_\96"/>
    <g s:x="0" s:y="5" s:pid="A"/>
    <g s:x="0" s:y="20" s:pid="B"/>
    <g s:x="30" s:y="12.5" s:pid="Y"/>
  </g>
  <g s:type="reduce_xor" transform="translate(561,821)" s:width="33" s:height="25" id="cell_\97">
    <s:alias val="$xor"/>
    <s:alias val="$reduce_xor"/>
    <s:alias val="$_XOR_"/>
    <path d="M3,0 A30 25 0 0 1 3,25 A30 25 0 0 0 33,12.5 A30 25 0 0 0 3,0" class="cell_\97"/>
    <path d="M0,0 A30 25 0 0 1 0,25" class="cell_\97"/>
    <g s:x="2" s:y="5" s:pid="A"/>
    <g s:x="2" s:y="20" s:pid="B"/>
    <g s:x="33" s:y="12.5" s:pid="Y"/>
  </g>
  <g s:type="inputExt" transform="translate(298,376.5)" s:width="30" s:height="20" id="cell_data_in">
    <text x="15" y="-4" class="nodelabel cell_data_in" s:attribute="ref">data_in</text>
    <s:alias val="$_inputExt_"/>
    <path d="M0,0 L0,20 L15,20 L30,10 L15,0 Z" class="cell_data_in"/>
    <g s:x="30" s:y="10" s:pid="Y"/>
  </g>
  <g s:type="inputExt" transform="translate(12,318)" s:width="30" s:height="20" id="cell_error_location">
    <text x="15" y="-4" class="nodelabel cell_error_location" s:attribute="ref">error_location</text>
    <s:alias val="$_inputExt_"/>
    <path d="M0,0 L0,20 L15,20 L30,10 L15,0 Z" class="cell_error_location"/>
    <g s:x="30" s:y="10" s:pid="Y"/>
  </g>
  <g s:type="outputExt" transform="translate(766,713.5)" s:width="30" s:height="20" id="cell_data_out">
    <text x="15" y="-4" class="nodelabel cell_data_out" s:attribute="ref">data_out</text>
    <s:alias val="$_outputExt_"/>
    <path d="M30,0 L30,20 L15,20 L0,10 L15,0 Z" class="cell_data_out"/>
    <g s:x="0" s:y="10" s:pid="A"/>
  </g>
  <g s:type="join" transform="translate(684,703)" s:width="4" s:height="40" id="cell_$join$,22,23,24,25,26,27,28,29,30,31,32,">
    <rect width="5" height="220" class="splitjoinBody" s:generic="body"/>
    <s:alias val="$_join_"/>
    <g s:x="5" s:y="20" s:pid="out"/>
    <g transform="translate(0,10)" s:x="0" s:y="10" s:pid="in0">
      <text x="-3" y="-4" class="inputPortLabel">0</text>
    </g>
    <g transform="translate(0,30)" s:x="0" s:y="10" s:pid="in0">
      <text x="-3" y="-4" class="inputPortLabel">1</text>
    </g>
    <g transform="translate(0,50)" s:x="0" s:y="10" s:pid="in0">
      <text x="-3" y="-4" class="inputPortLabel">2</text>
    </g>
    <g transform="translate(0,70)" s:x="0" s:y="10" s:pid="in0">
      <text x="-3" y="-4" class="inputPortLabel">3</text>
    </g>
    <g transform="translate(0,90)" s:x="0" s:y="10" s:pid="in0">
      <text x="-3" y="-4" class="inputPortLabel">4</text>
    </g>
    <g transform="translate(0,110)" s:x="0" s:y="10" s:pid="in0">
      <text x="-3" y="-4" class="inputPortLabel">5</text>
    </g>
    <g transform="translate(0,130)" s:x="0" s:y="10" s:pid="in0">
      <text x="-3" y="-4" class="inputPortLabel">6</text>
    </g>
    <g transform="translate(0,150)" s:x="0" s:y="10" s:pid="in0">
      <text x="-3" y="-4" class="inputPortLabel">7</text>
    </g>
    <g transform="translate(0,170)" s:x="0" s:y="10" s:pid="in0">
      <text x="-3" y="-4" class="inputPortLabel">8</text>
    </g>
    <g transform="translate(0,190)" s:x="0" s:y="10" s:pid="in0">
      <text x="-3" y="-4" class="inputPortLabel">9</text>
    </g>
    <g transform="translate(0,210)" s:x="0" s:y="10" s:pid="in0">
      <text x="-3" y="-4" class="inputPortLabel">10</text>
    </g>
  </g>
  <g s:type="split" transform="translate(170,307.5)" s:width="5" s:height="40" id="cell_$split$,18,19,20,21,">
    <rect width="5" height="80" class="splitjoinBody" s:generic="body"/>
    <s:alias val="$_split_"/>
    <g s:x="0" s:y="20" s:pid="in"/>
    <g transform="translate(4,10)" s:x="4" s:y="10" s:pid="out0">
      <text x="5" y="-4">3</text>
    </g>
    <g transform="translate(4,30)" s:x="4" s:y="10" s:pid="out0">
      <text x="5" y="-4">2</text>
    </g>
    <g transform="translate(4,50)" s:x="4" s:y="10" s:pid="out0">
      <text x="5" y="-4">1</text>
    </g>
    <g transform="translate(4,70)" s:x="4" s:y="10" s:pid="out0">
      <text x="5" y="-4">0</text>
    </g>
  </g>
  <g s:type="split" transform="translate(476,408.5)" s:width="5" s:height="40" id="cell_$split$,2,3,4,5,6,7,8,9,10,11,12,13,14,15,16,17,">
    <rect width="5" height="220" class="splitjoinBody" s:generic="body"/>
    <s:alias val="$_split_"/>
    <g s:x="0" s:y="20" s:pid="in"/>
    <g transform="translate(4,10)" s:x="4" s:y="10" s:pid="out0">
      <text x="5" y="-4">14</text>
    </g>
    <g transform="translate(4,30)" s:x="4" s:y="10" s:pid="out0">
      <text x="5" y="-4">15</text>
    </g>
    <g transform="translate(4,50)" s:x="4" s:y="10" s:pid="out0">
      <text x="5" y="-4">3</text>
    </g>
    <g transform="translate(4,70)" s:x="4" s:y="10" s:pid="out0">
      <text x="5" y="-4">5</text>
    </g>
    <g transform="translate(4,90)" s:x="4" s:y="10" s:pid="out0">
      <text x="5" y="-4">6</text>
    </g>
    <g transform="translate(4,110)" s:x="4" s:y="10" s:pid="out0">
      <text x="5" y="-4">7</text>
    </g>
    <g transform="translate(4,130)" s:x="4" s:y="10" s:pid="out0">
      <text x="5" y="-4">9</text>
    </g>
    <g transform="translate(4,150)" s:x="4" s:y="10" s:pid="out0">
      <text x="5" y="-4">10</text>
    </g>
    <g transform="translate(4,170)" s:x="4" s:y="10" s:pid="out0">
      <text x="5" y="-4">11</text>
    </g>
    <g transform="translate(4,190)" s:x="4" s:y="10" s:pid="out0">
      <text x="5" y="-4">12</text>
    </g>
    <g transform="translate(4,210)" s:x="4" s:y="10" s:pid="out0">
      <text x="5" y="-4">13</text>
    </g>
  </g>
  <line x1="175" x2="192" y1="318" y2="318" class="net_21 width_1" style="stroke-width: 1"/>
  <line x1="192" x2="192" y1="318" y2="758.5" class="net_21 width_1" style="stroke-width: 1"/>
  <circle cx="192" cy="318" r="2" style="fill:#000" class="net_21 width_1"/>
  <line x1="192" x2="302.3333333333333" y1="758.5" y2="758.5" class="net_21 width_1" style="stroke-width: 1"/>
  <line x1="175" x2="192" y1="318" y2="318" class="net_21 width_1" style="stroke-width: 1"/>
  <line x1="192" x2="192" y1="318" y2="22" class="net_21 width_1" style="stroke-width: 1"/>
  <line x1="192" x2="232" y1="22" y2="22" class="net_21 width_1" style="stroke-width: 1"/>
  <line x1="175" x2="302.3333333333333" y1="318" y2="318" class="net_21 width_1" style="stroke-width: 1"/>
  <line x1="175" x2="202" y1="338" y2="338" class="net_20 width_1" style="stroke-width: 1"/>
  <line x1="202" x2="202" y1="338" y2="773.5" class="net_20 width_1" style="stroke-width: 1"/>
  <circle cx="202" cy="338" r="2" style="fill:#000" class="net_20 width_1"/>
  <line x1="202" x2="302.3333333333333" y1="773.5" y2="773.5" class="net_20 width_1" style="stroke-width: 1"/>
  <line x1="175" x2="202" y1="338" y2="338" class="net_20 width_1" style="stroke-width: 1"/>
  <line x1="202" x2="202" y1="338" y2="104.5" class="net_20 width_1" style="stroke-width: 1"/>
  <line x1="202" x2="302.3333333333333" y1="104.5" y2="104.5" class="net_20 width_1" style="stroke-width: 1"/>
  <line x1="175" x2="202" y1="338" y2="338" class="net_20 width_1" style="stroke-width: 1"/>
  <line x1="202" x2="202" y1="338" y2="159.5" class="net_20 width_1" style="stroke-width: 1"/>
  <circle cx="202" cy="159.5" r="2" style="fill:#000" class="net_20 width_1"/>
  <line x1="202" x2="232" y1="159.5" y2="159.5" class="net_20 width_1" style="stroke-width: 1"/>
  <line x1="332.3333333333333" x2="350" y1="766" y2="766" class="net_33 width_1" style="stroke-width: 1"/>
  <line x1="350" x2="350" y1="766" y2="886" class="net_33 width_1" style="stroke-width: 1"/>
  <circle cx="350" cy="766" r="2" style="fill:#000" class="net_33 width_1"/>
  <line x1="350" x2="380.6666666666667" y1="886" y2="886" class="net_33 width_1" style="stroke-width: 1"/>
  <line x1="332.3333333333333" x2="380.6666666666667" y1="766" y2="766" class="net_33 width_1" style="stroke-width: 1"/>
  <line x1="175" x2="212" y1="358" y2="358" class="net_19 width_1" style="stroke-width: 1"/>
  <line x1="212" x2="212" y1="358" y2="901" class="net_19 width_1" style="stroke-width: 1"/>
  <circle cx="212" cy="358" r="2" style="fill:#000" class="net_19 width_1"/>
  <line x1="212" x2="380.6666666666667" y1="901" y2="901" class="net_19 width_1" style="stroke-width: 1"/>
  <line x1="175" x2="212" y1="358" y2="358" class="net_19 width_1" style="stroke-width: 1"/>
  <line x1="212" x2="212" y1="358" y2="268" class="net_19 width_1" style="stroke-width: 1"/>
  <circle cx="212" cy="268" r="2" style="fill:#000" class="net_19 width_1"/>
  <line x1="212" x2="303" y1="268" y2="268" class="net_19 width_1" style="stroke-width: 1"/>
  <line x1="175" x2="212" y1="358" y2="358" class="net_19 width_1" style="stroke-width: 1"/>
  <line x1="212" x2="212" y1="358" y2="179.5" class="net_19 width_1" style="stroke-width: 1"/>
  <circle cx="212" cy="179.5" r="2" style="fill:#000" class="net_19 width_1"/>
  <line x1="212" x2="380.6666666666667" y1="179.5" y2="179.5" class="net_19 width_1" style="stroke-width: 1"/>
  <line x1="175" x2="212" y1="358" y2="358" class="net_19 width_1" style="stroke-width: 1"/>
  <line x1="212" x2="212" y1="358" y2="618.5" class="net_19 width_1" style="stroke-width: 1"/>
  <circle cx="212" cy="618.5" r="2" style="fill:#000" class="net_19 width_1"/>
  <line x1="212" x2="380.6666666666667" y1="618.5" y2="618.5" class="net_19 width_1" style="stroke-width: 1"/>
  <line x1="175" x2="212" y1="358" y2="358" class="net_19 width_1" style="stroke-width: 1"/>
  <line x1="212" x2="212" y1="358" y2="52" class="net_19 width_1" style="stroke-width: 1"/>
  <line x1="212" x2="380.6666666666667" y1="52" y2="52" class="net_19 width_1" style="stroke-width: 1"/>
  <line x1="175" x2="222" y1="378" y2="378" class="net_18 width_1" style="stroke-width: 1"/>
  <line x1="222" x2="222" y1="378" y2="728.5" class="net_18 width_1" style="stroke-width: 1"/>
  <line x1="222" x2="370" y1="728.5" y2="728.5" class="net_18 width_1" style="stroke-width: 1"/>
  <line x1="370" x2="370" y1="728.5" y2="668.5" class="net_18 width_1" style="stroke-width: 1"/>
  <circle cx="222" cy="378" r="2" style="fill:#000" class="net_18 width_1"/>
  <circle cx="222" cy="728.5" r="2" style="fill:#000" class="net_18 width_1"/>
  <circle cx="370" cy="728.5" r="2" style="fill:#000" class="net_18 width_1"/>
  <line x1="370" x2="380" y1="668.5" y2="668.5" class="net_18 width_1" style="stroke-width: 1"/>
  <line x1="175" x2="222" y1="378" y2="378" class="net_18 width_1" style="stroke-width: 1"/>
  <line x1="222" x2="222" y1="378" y2="67" class="net_18 width_1" style="stroke-width: 1"/>
  <line x1="222" x2="451" y1="67" y2="67" class="net_18 width_1" style="stroke-width: 1"/>
  <line x1="175" x2="222" y1="378" y2="378" class="net_18 width_1" style="stroke-width: 1"/>
  <line x1="222" x2="222" y1="378" y2="968.5" class="net_18 width_1" style="stroke-width: 1"/>
  <line x1="222" x2="451" y1="968.5" y2="968.5" class="net_18 width_1" style="stroke-width: 1"/>
  <line x1="175" x2="222" y1="378" y2="378" class="net_18 width_1" style="stroke-width: 1"/>
  <line x1="222" x2="222" y1="378" y2="127" class="net_18 width_1" style="stroke-width: 1"/>
  <circle cx="222" cy="127" r="2" style="fill:#000" class="net_18 width_1"/>
  <line x1="222" x2="451" y1="127" y2="127" class="net_18 width_1" style="stroke-width: 1"/>
  <line x1="175" x2="222" y1="378" y2="378" class="net_18 width_1" style="stroke-width: 1"/>
  <line x1="222" x2="222" y1="378" y2="247" class="net_18 width_1" style="stroke-width: 1"/>
  <circle cx="222" cy="247" r="2" style="fill:#000" class="net_18 width_1"/>
  <line x1="222" x2="451" y1="247" y2="247" class="net_18 width_1" style="stroke-width: 1"/>
  <line x1="175" x2="222" y1="378" y2="378" class="net_18 width_1" style="stroke-width: 1"/>
  <line x1="222" x2="222" y1="378" y2="355.5" class="net_18 width_1" style="stroke-width: 1"/>
  <circle cx="222" cy="355.5" r="2" style="fill:#000" class="net_18 width_1"/>
  <line x1="222" x2="451" y1="355.5" y2="355.5" class="net_18 width_1" style="stroke-width: 1"/>
  <line x1="175" x2="222" y1="378" y2="378" class="net_18 width_1" style="stroke-width: 1"/>
  <line x1="222" x2="222" y1="378" y2="728.5" class="net_18 width_1" style="stroke-width: 1"/>
  <line x1="222" x2="451" y1="728.5" y2="728.5" class="net_18 width_1" style="stroke-width: 1"/>
  <line x1="175" x2="222" y1="378" y2="378" class="net_18 width_1" style="stroke-width: 1"/>
  <line x1="222" x2="222" y1="378" y2="848.5" class="net_18 width_1" style="stroke-width: 1"/>
  <circle cx="222" cy="848.5" r="2" style="fill:#000" class="net_18 width_1"/>
  <line x1="222" x2="451" y1="848.5" y2="848.5" class="net_18 width_1" style="stroke-width: 1"/>
  <line x1="410.6666666666667" x2="451" y1="893.5" y2="893.5" class="net_34 width_1" style="stroke-width: 1"/>
  <line x1="410.6666666666667" x2="421" y1="893.5" y2="893.5" class="net_34 width_1" style="stroke-width: 1"/>
  <line x1="421" x2="421" y1="893.5" y2="953.5" class="net_34 width_1" style="stroke-width: 1"/>
  <circle cx="421" cy="893.5" r="2" style="fill:#000" class="net_34 width_1"/>
  <line x1="421" x2="451" y1="953.5" y2="953.5" class="net_34 width_1" style="stroke-width: 1"/>
  <line x1="408" x2="431" y1="668.5" y2="668.5" class="net_35 width_1" style="stroke-width: 1"/>
  <line x1="431" x2="431" y1="668.5" y2="908.5" class="net_35 width_1" style="stroke-width: 1"/>
  <circle cx="431" cy="668.5" r="2" style="fill:#000" class="net_35 width_1"/>
  <line x1="431" x2="451" y1="908.5" y2="908.5" class="net_35 width_1" style="stroke-width: 1"/>
  <line x1="408" x2="431" y1="668.5" y2="668.5" class="net_35 width_1" style="stroke-width: 1"/>
  <line x1="431" x2="431" y1="668.5" y2="187" class="net_35 width_1" style="stroke-width: 1"/>
  <line x1="431" x2="451" y1="187" y2="187" class="net_35 width_1" style="stroke-width: 1"/>
  <line x1="408" x2="451" y1="668.5" y2="668.5" class="net_35 width_1" style="stroke-width: 1"/>
  <line x1="408" x2="431" y1="668.5" y2="668.5" class="net_35 width_1" style="stroke-width: 1"/>
  <line x1="431" x2="431" y1="668.5" y2="788.5" class="net_35 width_1" style="stroke-width: 1"/>
  <circle cx="431" cy="788.5" r="2" style="fill:#000" class="net_35 width_1"/>
  <line x1="431" x2="451" y1="788.5" y2="788.5" class="net_35 width_1" style="stroke-width: 1"/>
  <line x1="480.5" x2="480.5" y1="418.5" y2="396.5" class="net_16 width_1" style="stroke-width: 1"/>
  <line x1="480.5" x2="531" y1="396.5" y2="396.5" class="net_16 width_1" style="stroke-width: 1"/>
  <line x1="531" x2="531" y1="396.5" y2="886" class="net_16 width_1" style="stroke-width: 1"/>
  <line x1="531" x2="563" y1="886" y2="886" class="net_16 width_1" style="stroke-width: 1"/>
  <line x1="481" x2="563" y1="901" y2="901" class="net_36 width_1" style="stroke-width: 1"/>
  <line x1="410.6666666666667" x2="421" y1="44.5" y2="44.5" class="net_37 width_1" style="stroke-width: 1"/>
  <line x1="421" x2="421" y1="44.5" y2="52" class="net_37 width_1" style="stroke-width: 1"/>
  <line x1="421" x2="451" y1="52" y2="52" class="net_37 width_1" style="stroke-width: 1"/>
  <line x1="481" x2="491" y1="439" y2="439" class="net_17 width_1" style="stroke-width: 1"/>
  <line x1="491" x2="491" y1="439" y2="946" class="net_17 width_1" style="stroke-width: 1"/>
  <line x1="491" x2="563" y1="946" y2="946" class="net_17 width_1" style="stroke-width: 1"/>
  <line x1="481" x2="563" y1="961" y2="961" class="net_39 width_1" style="stroke-width: 1"/>
  <line x1="481" x2="501" y1="459" y2="459" class="net_5 width_1" style="stroke-width: 1"/>
  <line x1="501" x2="501" y1="459" y2="44.5" class="net_5 width_1" style="stroke-width: 1"/>
  <line x1="501" x2="563" y1="44.5" y2="44.5" class="net_5 width_1" style="stroke-width: 1"/>
  <line x1="481" x2="563" y1="59.5" y2="59.5" class="net_38 width_1" style="stroke-width: 1"/>
  <line x1="260" x2="283" y1="22" y2="22" class="net_40 width_1" style="stroke-width: 1"/>
  <line x1="283" x2="283" y1="22" y2="89.5" class="net_40 width_1" style="stroke-width: 1"/>
  <circle cx="283" cy="22" r="2" style="fill:#000" class="net_40 width_1"/>
  <line x1="283" x2="302.3333333333333" y1="89.5" y2="89.5" class="net_40 width_1" style="stroke-width: 1"/>
  <line x1="260" x2="302.3333333333333" y1="22" y2="22" class="net_40 width_1" style="stroke-width: 1"/>
  <line x1="332.3333333333333" x2="380.6666666666667" y1="97" y2="97" class="net_41 width_1" style="stroke-width: 1"/>
  <line x1="332.3333333333333" x2="370" y1="97" y2="97" class="net_41 width_1" style="stroke-width: 1"/>
  <line x1="370" x2="370" y1="97" y2="164.5" class="net_41 width_1" style="stroke-width: 1"/>
  <circle cx="370" cy="97" r="2" style="fill:#000" class="net_41 width_1"/>
  <line x1="370" x2="380.6666666666667" y1="164.5" y2="164.5" class="net_41 width_1" style="stroke-width: 1"/>
  <line x1="331" x2="360" y1="268" y2="268" class="net_42 width_1" style="stroke-width: 1"/>
  <line x1="360" x2="360" y1="268" y2="112" class="net_42 width_1" style="stroke-width: 1"/>
  <circle cx="360" cy="268" r="2" style="fill:#000" class="net_42 width_1"/>
  <line x1="360" x2="380.6666666666667" y1="112" y2="112" class="net_42 width_1" style="stroke-width: 1"/>
  <line x1="331" x2="360" y1="268" y2="268" class="net_42 width_1" style="stroke-width: 1"/>
  <line x1="360" x2="360" y1="268" y2="340.5" class="net_42 width_1" style="stroke-width: 1"/>
  <circle cx="360" cy="340.5" r="2" style="fill:#000" class="net_42 width_1"/>
  <line x1="360" x2="380.6666666666667" y1="340.5" y2="340.5" class="net_42 width_1" style="stroke-width: 1"/>
  <line x1="331" x2="360" y1="268" y2="268" class="net_42 width_1" style="stroke-width: 1"/>
  <line x1="360" x2="360" y1="268" y2="781" class="net_42 width_1" style="stroke-width: 1"/>
  <line x1="360" x2="380.6666666666667" y1="781" y2="781" class="net_42 width_1" style="stroke-width: 1"/>
  <line x1="410.6666666666667" x2="421" y1="104.5" y2="104.5" class="net_43 width_1" style="stroke-width: 1"/>
  <line x1="421" x2="421" y1="104.5" y2="112" class="net_43 width_1" style="stroke-width: 1"/>
  <line x1="421" x2="451" y1="112" y2="112" class="net_43 width_1" style="stroke-width: 1"/>
  <line x1="481" x2="511" y1="479" y2="479" class="net_7 width_1" style="stroke-width: 1"/>
  <line x1="511" x2="511" y1="479" y2="104.5" class="net_7 width_1" style="stroke-width: 1"/>
  <line x1="511" x2="563" y1="104.5" y2="104.5" class="net_7 width_1" style="stroke-width: 1"/>
  <line x1="481" x2="563" y1="119.5" y2="119.5" class="net_44 width_1" style="stroke-width: 1"/>
  <line x1="410.6666666666667" x2="451" y1="172" y2="172" class="net_45 width_1" style="stroke-width: 1"/>
  <line x1="410.6666666666667" x2="441" y1="172" y2="172" class="net_45 width_1" style="stroke-width: 1"/>
  <line x1="441" x2="441" y1="172" y2="232" class="net_45 width_1" style="stroke-width: 1"/>
  <circle cx="441" cy="172" r="2" style="fill:#000" class="net_45 width_1"/>
  <line x1="441" x2="451" y1="232" y2="232" class="net_45 width_1" style="stroke-width: 1"/>
  <line x1="481" x2="521" y1="499" y2="499" class="net_8 width_1" style="stroke-width: 1"/>
  <line x1="521" x2="521" y1="499" y2="164.5" class="net_8 width_1" style="stroke-width: 1"/>
  <line x1="521" x2="563" y1="164.5" y2="164.5" class="net_8 width_1" style="stroke-width: 1"/>
  <line x1="481" x2="563" y1="179.5" y2="179.5" class="net_46 width_1" style="stroke-width: 1"/>
  <line x1="481" x2="541" y1="519" y2="519" class="net_9 width_1" style="stroke-width: 1"/>
  <line x1="541" x2="541" y1="519" y2="224.5" class="net_9 width_1" style="stroke-width: 1"/>
  <line x1="541" x2="563" y1="224.5" y2="224.5" class="net_9 width_1" style="stroke-width: 1"/>
  <line x1="481" x2="563" y1="239.5" y2="239.5" class="net_47 width_1" style="stroke-width: 1"/>
  <line x1="260" x2="273" y1="159.5" y2="159.5" class="net_48 width_1" style="stroke-width: 1"/>
  <line x1="273" x2="273" y1="159.5" y2="333" class="net_48 width_1" style="stroke-width: 1"/>
  <circle cx="273" cy="159.5" r="2" style="fill:#000" class="net_48 width_1"/>
  <line x1="273" x2="302.3333333333333" y1="333" y2="333" class="net_48 width_1" style="stroke-width: 1"/>
  <line x1="260" x2="273" y1="159.5" y2="159.5" class="net_48 width_1" style="stroke-width: 1"/>
  <line x1="273" x2="273" y1="159.5" y2="37" class="net_48 width_1" style="stroke-width: 1"/>
  <line x1="273" x2="302.3333333333333" y1="37" y2="37" class="net_48 width_1" style="stroke-width: 1"/>
  <line x1="332.3333333333333" x2="380.6666666666667" y1="325.5" y2="325.5" class="net_49 width_1" style="stroke-width: 1"/>
  <line x1="332.3333333333333" x2="370" y1="325.5" y2="325.5" class="net_49 width_1" style="stroke-width: 1"/>
  <line x1="370" x2="370" y1="325.5" y2="603.5" class="net_49 width_1" style="stroke-width: 1"/>
  <circle cx="370" cy="325.5" r="2" style="fill:#000" class="net_49 width_1"/>
  <line x1="370" x2="380.6666666666667" y1="603.5" y2="603.5" class="net_49 width_1" style="stroke-width: 1"/>
  <line x1="410.6666666666667" x2="441" y1="333" y2="333" class="net_50 width_1" style="stroke-width: 1"/>
  <line x1="441" x2="441" y1="333" y2="340.5" class="net_50 width_1" style="stroke-width: 1"/>
  <line x1="441" x2="451" y1="340.5" y2="340.5" class="net_50 width_1" style="stroke-width: 1"/>
  <line x1="481" x2="563" y1="539" y2="539" class="net_11 width_1" style="stroke-width: 1"/>
  <line x1="481" x2="551" y1="348" y2="348" class="net_51 width_1" style="stroke-width: 1"/>
  <line x1="551" x2="551" y1="348" y2="554" class="net_51 width_1" style="stroke-width: 1"/>
  <line x1="551" x2="563" y1="554" y2="554" class="net_51 width_1" style="stroke-width: 1"/>
  <line x1="410.6666666666667" x2="441" y1="611" y2="611" class="net_52 width_1" style="stroke-width: 1"/>
  <line x1="441" x2="441" y1="611" y2="653.5" class="net_52 width_1" style="stroke-width: 1"/>
  <circle cx="441" cy="653.5" r="2" style="fill:#000" class="net_52 width_1"/>
  <line x1="441" x2="451" y1="653.5" y2="653.5" class="net_52 width_1" style="stroke-width: 1"/>
  <line x1="410.6666666666667" x2="441" y1="611" y2="611" class="net_52 width_1" style="stroke-width: 1"/>
  <line x1="441" x2="441" y1="611" y2="713.5" class="net_52 width_1" style="stroke-width: 1"/>
  <line x1="441" x2="451" y1="713.5" y2="713.5" class="net_52 width_1" style="stroke-width: 1"/>
  <line x1="481" x2="541" y1="559" y2="559" class="net_12 width_1" style="stroke-width: 1"/>
  <line x1="541" x2="541" y1="559" y2="646" class="net_12 width_1" style="stroke-width: 1"/>
  <line x1="541" x2="563" y1="646" y2="646" class="net_12 width_1" style="stroke-width: 1"/>
  <line x1="481" x2="563" y1="661" y2="661" class="net_53 width_1" style="stroke-width: 1"/>
  <line x1="481" x2="521" y1="579" y2="579" class="net_13 width_1" style="stroke-width: 1"/>
  <line x1="521" x2="521" y1="579" y2="706" class="net_13 width_1" style="stroke-width: 1"/>
  <line x1="521" x2="563" y1="706" y2="706" class="net_13 width_1" style="stroke-width: 1"/>
  <line x1="481" x2="563" y1="721" y2="721" class="net_55 width_1" style="stroke-width: 1"/>
  <line x1="410.6666666666667" x2="451" y1="773.5" y2="773.5" class="net_56 width_1" style="stroke-width: 1"/>
  <line x1="410.6666666666667" x2="441" y1="773.5" y2="773.5" class="net_56 width_1" style="stroke-width: 1"/>
  <line x1="441" x2="441" y1="773.5" y2="833.5" class="net_56 width_1" style="stroke-width: 1"/>
  <circle cx="441" cy="773.5" r="2" style="fill:#000" class="net_56 width_1"/>
  <line x1="441" x2="451" y1="833.5" y2="833.5" class="net_56 width_1" style="stroke-width: 1"/>
  <line x1="481" x2="511" y1="599" y2="599" class="net_14 width_1" style="stroke-width: 1"/>
  <line x1="511" x2="511" y1="599" y2="766" class="net_14 width_1" style="stroke-width: 1"/>
  <line x1="511" x2="563" y1="766" y2="766" class="net_14 width_1" style="stroke-width: 1"/>
  <line x1="481" x2="563" y1="781" y2="781" class="net_57 width_1" style="stroke-width: 1"/>
  <line x1="332.3333333333333" x2="350" y1="29.5" y2="29.5" class="net_54 width_1" style="stroke-width: 1"/>
  <line x1="350" x2="350" y1="29.5" y2="37" class="net_54 width_1" style="stroke-width: 1"/>
  <line x1="350" x2="380.6666666666667" y1="37" y2="37" class="net_54 width_1" style="stroke-width: 1"/>
  <line x1="480.5" x2="480.5" y1="619.5" y2="638.5" class="net_15 width_1" style="stroke-width: 1"/>
  <line x1="480.5" x2="501" y1="638.5" y2="638.5" class="net_15 width_1" style="stroke-width: 1"/>
  <line x1="501" x2="501" y1="638.5" y2="826" class="net_15 width_1" style="stroke-width: 1"/>
  <line x1="501" x2="563" y1="826" y2="826" class="net_15 width_1" style="stroke-width: 1"/>
  <line x1="481" x2="563" y1="841" y2="841" class="net_58 width_1" style="stroke-width: 1"/>
  <line x1="690" x2="766" y1="723.5" y2="723.5" class="net_22,23,24,25,26,27,28,29,30,31,32 width_11" style="stroke-width: 2"/>
  <line x1="594" x2="684.5" y1="52" y2="52" class="net_22 width_1" style="stroke-width: 1"/>
  <line x1="684.5" x2="684.5" y1="52" y2="713" class="net_22 width_1" style="stroke-width: 1"/>
  <line x1="594" x2="674" y1="112" y2="112" class="net_23 width_1" style="stroke-width: 1"/>
  <line x1="674" x2="674" y1="112" y2="733.5" class="net_23 width_1" style="stroke-width: 1"/>
  <line x1="674" x2="684" y1="733.5" y2="733.5" class="net_23 width_1" style="stroke-width: 1"/>
  <line x1="594" x2="664" y1="172" y2="172" class="net_24 width_1" style="stroke-width: 1"/>
  <line x1="664" x2="664" y1="172" y2="753.5" class="net_24 width_1" style="stroke-width: 1"/>
  <line x1="664" x2="684" y1="753.5" y2="753.5" class="net_24 width_1" style="stroke-width: 1"/>
  <line x1="594" x2="654" y1="232" y2="232" class="net_25 width_1" style="stroke-width: 1"/>
  <line x1="654" x2="654" y1="232" y2="773.5" class="net_25 width_1" style="stroke-width: 1"/>
  <line x1="654" x2="684" y1="773.5" y2="773.5" class="net_25 width_1" style="stroke-width: 1"/>
  <line x1="594" x2="644" y1="546.5" y2="546.5" class="net_26 width_1" style="stroke-width: 1"/>
  <line x1="644" x2="644" y1="546.5" y2="793.5" class="net_26 width_1" style="stroke-width: 1"/>
  <line x1="644" x2="684" y1="793.5" y2="793.5" class="net_26 width_1" style="stroke-width: 1"/>
  <line x1="594" x2="634" y1="653.5" y2="653.5" class="net_27 width_1" style="stroke-width: 1"/>
  <line x1="634" x2="634" y1="653.5" y2="813.5" class="net_27 width_1" style="stroke-width: 1"/>
  <line x1="634" x2="684" y1="813.5" y2="813.5" class="net_27 width_1" style="stroke-width: 1"/>
  <line x1="594" x2="624" y1="713.5" y2="713.5" class="net_28 width_1" style="stroke-width: 1"/>
  <line x1="624" x2="624" y1="713.5" y2="833.5" class="net_28 width_1" style="stroke-width: 1"/>
  <line x1="624" x2="684" y1="833.5" y2="833.5" class="net_28 width_1" style="stroke-width: 1"/>
  <line x1="594" x2="614" y1="773.5" y2="773.5" class="net_29 width_1" style="stroke-width: 1"/>
  <line x1="614" x2="614" y1="773.5" y2="853.5" class="net_29 width_1" style="stroke-width: 1"/>
  <line x1="614" x2="684" y1="853.5" y2="853.5" class="net_29 width_1" style="stroke-width: 1"/>
  <line x1="594" x2="604" y1="833.5" y2="833.5" class="net_30 width_1" style="stroke-width: 1"/>
  <line x1="604" x2="604" y1="833.5" y2="873.5" class="net_30 width_1" style="stroke-width: 1"/>
  <line x1="604" x2="684" y1="873.5" y2="873.5" class="net_30 width_1" style="stroke-width: 1"/>
  <line x1="594" x2="684" y1="893.5" y2="893.5" class="net_31 width_1" style="stroke-width: 1"/>
  <line x1="594" x2="684.5" y1="953.5" y2="953.5" class="net_32 width_1" style="stroke-width: 1"/>
  <line x1="684.5" x2="684.5" y1="953.5" y2="914" class="net_32 width_1" style="stroke-width: 1"/>
  <line x1="42" x2="170" y1="328" y2="328" class="net_18,19,20,21 width_4" style="stroke-width: 2"/>
  <line x1="328" x2="476.5" y1="386.5" y2="386.5" class="net_2,3,4,5,6,7,8,9,10,11,12,13,14,15,16,17 width_16" style="stroke-width: 2"/>
  <line x1="476.5" x2="476.5" y1="386.5" y2="428.5" class="net_2,3,4,5,6,7,8,9,10,11,12,13,14,15,16,17 width_16" style="stroke-width: 2"/>
  <rect x="728" y="718.5" width="22" height="9" class="net_22,23,24,25,26,27,28,29,30,31,32 width_11 busLabel_11" style="fill: white; stroke: none"/>
  <text x="727" y="726.5" class="net_22,23,24,25,26,27,28,29,30,31,32 width_11 busLabel_11">/11/</text>
  <rect x="132" y="323" width="16" height="9" class="net_18,19,20,21 width_4 busLabel_4" style="fill: white; stroke: none"/>
  <text x="131" y="331" class="net_18,19,20,21 width_4 busLabel_4">/4/</text>
  <rect x="394.5" y="381.5" width="22" height="9" class="net_2,3,4,5,6,7,8,9,10,11,12,13,14,15,16,17 width_16 busLabel_16" style="fill: white; stroke: none"/>
  <text x="393.5" y="389.5" class="net_2,3,4,5,6,7,8,9,10,11,12,13,14,15,16,17 width_16 busLabel_16">/16/</text>
</svg>
