<svg xmlns="http://www.w3.org/2000/svg" xmlns:xlink="http://www.w3.org/1999/xlink" xmlns:s="https://github.com/nturley/netlistsvg" width="508" height="177">
  <style>svg {
    stroke:#000;
    fill:none;
  }
  text {
    fill:#000;
    stroke:none;
    font-size:10px;
    font-weight: bold;
    font-family: "Courier New", monospace;
  }
  line {
      stroke-linecap: round;
  }
  .nodelabel {
    text-anchor: middle;
  }
  .inputPortLabel {
    text-anchor: end;
  }
  .splitjoinBody {
    fill:#000;
  }</style>
  <g s:type="dff" transform="translate(361,22.5)" s:width="30" s:height="40" id="cell_\6667">
    <s:alias val="$dff"/>
    <s:alias val="$_DFF_"/>
    <s:alias val="$_DFF_P_"/>
    <s:alias val="dff-bus"/>
    <s:alias val="$dff-bus"/>
    <s:alias val="$_DFF_-bus"/>
    <s:alias val="$_DFF_P_-bus"/>
    <rect width="30" height="40" x="0" y="0" class="cell_\6667"/>
    <path d="M0,35 L5,30 L0,25" class="cell_\6667"/>
    <g s:x="31" s:y="10" s:pid="Q"/>
    <g s:x="-1" s:y="30" s:pid="CLK"/>
    <g s:x="-1" s:y="30" s:pid="C"/>
    <g s:x="-1" s:y="10" s:pid="D"/>
  </g>
  <g s:type="generic" transform="translate(186,22)" s:width="30" s:height="40" id="cell_\6668">
    <text x="15" y="-4" class="nodelabel cell_\6668" s:attribute="ref">$mem-bus</text>
    <rect width="30" height="140" s:generic="body" class="cell_\6668"/>
    <g transform="translate(0,10)" s:x="0" s:y="10" s:pid="in0" id="port_\6668~RD_ADDR">
      <text x="-3" y="-4" class="inputPortLabel cell_\6668">RD_ADDR</text>
    </g>
    <g transform="translate(0,30)" s:x="0" s:y="10" s:pid="in0" id="port_\6668~RD_CLK">
      <text x="-3" y="-4" class="inputPortLabel cell_\6668">RD_CLK</text>
    </g>
    <g transform="translate(0,50)" s:x="0" s:y="10" s:pid="in0" id="port_\6668~RD_EN">
      <text x="-3" y="-4" class="inputPortLabel cell_\6668">RD_EN</text>
    </g>
    <g transform="translate(0,70)" s:x="0" s:y="10" s:pid="in0" id="port_\6668~WR_ADDR">
      <text x="-3" y="-4" class="inputPortLabel cell_\6668">WR_ADDR</text>
    </g>
    <g transform="translate(0,90)" s:x="0" s:y="10" s:pid="in0" id="port_\6668~WR_CLK">
      <text x="-3" y="-4" class="inputPortLabel cell_\6668">WR_CLK</text>
    </g>
    <g transform="translate(0,110)" s:x="0" s:y="10" s:pid="in0" id="port_\6668~WR_DATA">
      <text x="-3" y="-4" class="inputPortLabel cell_\6668">WR_DATA</text>
    </g>
    <g transform="translate(0,130)" s:x="0" s:y="10" s:pid="in0" id="port_\6668~WR_EN">
      <text x="-3" y="-4" class="inputPortLabel cell_\6668">WR_EN</text>
    </g>
    <g transform="translate(30,10)" s:x="30" s:y="10" s:pid="out0" id="port_\6668~RD_DATA">
      <text x="5" y="-4" style="fill:#000; stroke:none" class="cell_\6668">RD_DATA</text>
    </g>
  </g>
  <g s:type="inputExt" transform="translate(295,83.5)" s:width="30" s:height="20" id="cell_clk">
    <text x="15" y="-4" class="nodelabel cell_clk" s:attribute="ref">clk</text>
    <s:alias val="$_inputExt_"/>
    <path d="M0,0 L0,20 L15,20 L30,10 L15,0 Z" class="cell_clk"/>
    <g s:x="30" s:y="10" s:pid="Y"/>
  </g>
  <g s:type="inputExt" transform="translate(12,22.5)" s:width="30" s:height="20" id="cell_addr">
    <text x="15" y="-4" class="nodelabel cell_addr" s:attribute="ref">addr</text>
    <s:alias val="$_inputExt_"/>
    <path d="M0,0 L0,20 L15,20 L30,10 L15,0 Z" class="cell_addr"/>
    <g s:x="30" s:y="10" s:pid="Y"/>
  </g>
  <g s:type="outputExt" transform="translate(466,22.5)" s:width="30" s:height="20" id="cell_data">
    <text x="15" y="-4" class="nodelabel cell_data" s:attribute="ref">data</text>
    <s:alias val="$_outputExt_"/>
    <path d="M30,0 L30,20 L15,20 L0,10 L15,0 Z" class="cell_data"/>
    <g s:x="0" s:y="10" s:pid="A"/>
  </g>
  <g s:type="constant" transform="translate(77,83.5)" s:width="30" s:height="20" id="cell_1">
    <text x="15" y="-4" class="nodelabel cell_1" s:attribute="ref">1</text>
    <s:alias val="$_constant_"/>
    <rect width="30" height="20" class="cell_1"/>
    <g s:x="31" s:y="10" s:pid="Y"/>
  </g>
  <line x1="325" x2="335" y1="93.5" y2="93.5" class="net_2 width_1" style="stroke-width: 1"/>
  <line x1="335" x2="335" y1="93.5" y2="52.5" class="net_2 width_1" style="stroke-width: 1"/>
  <line x1="335" x2="360" y1="52.5" y2="52.5" class="net_2 width_1" style="stroke-width: 1"/>
  <line x1="217" x2="360" y1="32.5" y2="32.5" class="net_27,28,29,30,31,32,33,34,35,36,37,38,39,40,41,42 width_16" style="stroke-width: 2"/>
  <line x1="42" x2="186" y1="32.5" y2="32.5" class="net_3,4,5,6,7,8,9,10 width_8" style="stroke-width: 2"/>
  <line x1="108" x2="118" y1="93.5" y2="93.5" class="net_43 width_1" style="stroke-width: 1"/>
  <line x1="118" x2="118" y1="93.5" y2="72.5" class="net_43 width_1" style="stroke-width: 1"/>
  <line x1="118" x2="186" y1="72.5" y2="72.5" class="net_43 width_1" style="stroke-width: 1"/>
  <line x1="128" x2="128" y1="138.5" y2="92.5" class="net_ width_1" style="stroke-width: 1"/>
  <line x1="128" x2="186" y1="92.5" y2="92.5" class="net_ width_1" style="stroke-width: 1"/>
  <line x1="128" x2="128" y1="138.5" y2="112.5" class="net_ width_1" style="stroke-width: 1"/>
  <circle cx="128" cy="112.5" r="2" style="fill:#000" class="net_ width_1"/>
  <line x1="128" x2="186" y1="112.5" y2="112.5" class="net_ width_1" style="stroke-width: 1"/>
  <line x1="128" x2="128" y1="138.5" y2="132.5" class="net_ width_1" style="stroke-width: 1"/>
  <circle cx="128" cy="132.5" r="2" style="fill:#000" class="net_ width_1"/>
  <line x1="128" x2="186" y1="132.5" y2="132.5" class="net_ width_1" style="stroke-width: 1"/>
  <line x1="128" x2="128" y1="138.5" y2="152.5" class="net_ width_1" style="stroke-width: 1"/>
  <line x1="128" x2="186" y1="152.5" y2="152.5" class="net_ width_1" style="stroke-width: 1"/>
  <line x1="392" x2="466" y1="32.5" y2="32.5" class="net_11,12,13,14,15,16,17,18,19,20,21,22,23,24,25,26 width_16" style="stroke-width: 2"/>
  <rect x="309" y="27.5" width="22" height="9" class="net_27,28,29,30,31,32,33,34,35,36,37,38,39,40,41,42 width_16 busLabel_16" style="fill: white; stroke: none"/>
  <text x="308" y="35.5" class="net_27,28,29,30,31,32,33,34,35,36,37,38,39,40,41,42 width_16 busLabel_16">/16/</text>
  <rect x="91.5" y="27.5" width="16" height="9" class="net_3,4,5,6,7,8,9,10 width_8 busLabel_8" style="fill: white; stroke: none"/>
  <text x="90.5" y="35.5" class="net_3,4,5,6,7,8,9,10 width_8 busLabel_8">/8/</text>
  <rect x="428" y="27.5" width="22" height="9" class="net_11,12,13,14,15,16,17,18,19,20,21,22,23,24,25,26 width_16 busLabel_16" style="fill: white; stroke: none"/>
  <text x="427" y="35.5" class="net_11,12,13,14,15,16,17,18,19,20,21,22,23,24,25,26 width_16 busLabel_16">/16/</text>
</svg>
